<?xml version="1.0" encoding="UTF-8" standalone="no"?>
<svg
   version="1.0"
   width="256.000000pt"
   height="256.000000pt"
   viewBox="0 0 256.000000 256.000000"
   preserveAspectRatio="xMidYMid meet"
   id="svg10"
   sodipodi:docname="heliospp.svg"
   inkscape:version="1.1.1 (3bf5ae0d25, 2021-09-20)"
   xmlns:inkscape="http://www.inkscape.org/namespaces/inkscape"
   xmlns:sodipodi="http://sodipodi.sourceforge.net/DTD/sodipodi-0.dtd"
   xmlns="http://www.w3.org/2000/svg"
   xmlns:svg="http://www.w3.org/2000/svg">
  <defs
     id="defs14" />
  <sodipodi:namedview
     id="namedview12"
     pagecolor="#ffffff"
     bordercolor="#999999"
     borderopacity="1"
     inkscape:pageshadow="0"
     inkscape:pageopacity="0"
     inkscape:pagecheckerboard="0"
     inkscape:document-units="pt"
     showgrid="false"
     inkscape:zoom="0.47499131"
     inkscape:cx="76.843511"
     inkscape:cy="706.32871"
     inkscape:window-width="1920"
     inkscape:window-height="1013"
     inkscape:window-x="-9"
     inkscape:window-y="-9"
     inkscape:window-maximized="1"
     inkscape:current-layer="svg10" />
  <g
     transform="matrix(0.05572486,0,0,-0.05572352,0,256.49116)"
     fill="#000000"
     stroke="none"
     id="g8"
     style="fill:#c92434;fill-opacity:1">
    <path
       d="m 1730,4591 c -111,-36 -181,-119 -188,-222 -3,-41 1,-74 12,-103 17,-44 88,-129 115,-138 10,-3 5,-45 -28,-208 -63,-317 -205,-1058 -213,-1114 -2,-12 -20,-25 -53,-37 -174,-65 -229,-255 -114,-400 l 28,-35 -105,-215 c -57,-118 -111,-227 -120,-244 -34,-64 -73,-143 -105,-215 -19,-41 -75,-158 -125,-260 -50,-102 -98,-201 -108,-220 -16,-35 -17,-35 -78,-35 -50,0 -72,-6 -109,-27 -60,-35 -115,-97 -128,-145 -44,-159 65,-311 228,-317 57,-2 59,-3 137,-73 C 892,479 973,418 1085,349 1340,194 1624,83 1889,33 2001,12 2065,6 2252,3 c 373,-8 645,44 968,185 213,92 378,196 586,367 60,49 279,281 330,350 214,287 371,651 431,1003 24,139 27,183 27,382 0,188 -4,247 -23,360 -83,493 -321,947 -675,1287 -353,339 -821,564 -1296,625 -128,16 -476,16 -582,0 -70,-11 -80,-10 -122,9 -52,23 -129,32 -166,20 z m 981,-324 c 63,-14 155,-37 205,-52 85,-26 240,-89 257,-104 4,-4 -4,-38 -18,-74 -29,-77 -31,-118 -11,-214 21,-98 26,-108 110,-227 133,-185 240,-437 257,-601 30,-280 89,-352 387,-469 79,-31 149,-56 156,-56 8,0 59,-33 114,-72 56,-40 115,-80 131,-90 l 30,-16 -5,-79 c -12,-194 -51,-433 -74,-457 -9,-9 -51,3 -160,47 -307,124 -382,147 -486,154 -114,7 -147,-3 -210,-68 -27,-28 -87,-88 -134,-134 l -85,-83 v -59 c 0,-42 9,-80 32,-138 46,-115 56,-163 49,-223 -10,-85 -63,-169 -185,-294 -82,-84 -100,-123 -101,-209 0,-66 26,-210 54,-301 l 15,-47 -77,-25 C 2593,256 2196,238 1830,326 1556,392 1361,483 1102,667 963,765 900,826 900,862 c 0,25 5,29 58,43 31,9 100,29 152,45 138,41 266,77 425,120 77,21 175,50 218,63 l 77,25 21,-29 c 36,-51 93,-74 184,-74 99,0 149,24 200,93 69,95 69,201 -3,294 -43,56 -104,88 -182,95 l -56,5 -131,267 c -72,146 -159,326 -194,399 l -62,133 25,27 c 40,43 52,72 58,140 l 5,64 270,130 c 445,215 513,248 520,248 4,0 20,-11 37,-25 31,-26 114,-55 159,-55 94,0 205,86 228,175 25,100 8,175 -58,245 -59,62 -138,89 -216,73 -27,-6 -50,-10 -51,-9 -1,3 -96,133 -125,171 -48,63 -121,164 -154,210 -16,23 -57,77 -90,119 -80,102 -141,185 -162,219 -10,16 -32,47 -50,70 l -31,41 23,30 c 12,17 26,41 29,53 9,30 28,31 321,28 223,-3 263,-6 366,-28 z m -805,-223 c 27,-36 69,-91 94,-123 25,-32 63,-84 85,-116 22,-31 90,-123 151,-204 140,-185 234,-317 234,-328 0,-5 -9,-28 -20,-51 -11,-23 -21,-65 -23,-94 l -2,-51 -81,-41 c -88,-44 -336,-164 -559,-271 l -141,-67 -42,28 c -27,18 -41,33 -38,43 3,9 11,52 20,96 23,125 104,559 146,785 22,113 49,259 61,325 29,162 41,169 115,69 z M 1574,2096 c 52,-105 119,-245 151,-311 31,-66 78,-161 103,-212 l 46,-92 -26,-28 c -35,-38 -49,-67 -57,-121 -7,-54 7,-47 -236,-117 -88,-25 -227,-65 -310,-90 -82,-24 -199,-57 -260,-74 l -110,-30 -22,24 -22,23 80,169 c 45,92 118,245 164,338 45,94 122,251 170,350 188,389 171,360 205,361 30,1 32,-2 124,-190 z"
       id="path2"
       style="fill:#c92434;fill-opacity:1" />
    <path
       d="m 562,3891 c -88,-30 -148,-106 -159,-200 -9,-79 12,-137 72,-198 56,-55 98,-73 175,-73 79,0 121,18 175,73 80,82 97,179 49,275 -33,66 -80,107 -146,127 -66,19 -101,19 -166,-4 z"
       id="path4"
       style="fill:#c92434;fill-opacity:1" />
    <path
       d="M 48,2515 0,2499 v -219 -218 l 38,-13 c 20,-7 65,-13 100,-12 50,1 71,6 105,28 95,62 132,132 125,237 -10,156 -168,261 -320,213 z"
       id="path6"
       style="fill:#c92434;fill-opacity:1" />
  </g>
</svg>
